<svg xmlns="http://www.w3.org/2000/svg" xmlns:xlink="http://www.w3.org/1999/xlink" width="500" zoomAndPan="magnify" viewBox="0 0 375 374.999991" height="500" preserveAspectRatio="xMidYMid meet" version="1.0"><defs><g/><clipPath id="9d4c16a774"><path d="M 72.253906 72.253906 L 300.628906 72.253906 L 300.628906 300.628906 L 72.253906 300.628906 Z M 72.253906 72.253906 " clip-rule="nonzero"/></clipPath><clipPath id="c9f1cc4525"><path d="M 186.441406 72.253906 C 123.378906 72.253906 72.253906 123.378906 72.253906 186.441406 C 72.253906 249.503906 123.378906 300.628906 186.441406 300.628906 C 249.503906 300.628906 300.628906 249.503906 300.628906 186.441406 C 300.628906 123.378906 249.503906 72.253906 186.441406 72.253906 Z M 186.441406 72.253906 " clip-rule="nonzero"/></clipPath></defs><g clip-path="url(#9d4c16a774)"><g clip-path="url(#c9f1cc4525)"><path fill="#3d3b3a" d="M 72.253906 72.253906 L 300.628906 72.253906 L 300.628906 300.628906 L 72.253906 300.628906 Z M 72.253906 72.253906 " fill-opacity="1" fill-rule="nonzero"/></g></g><g fill="#a78bfa" fill-opacity="1"><g transform="translate(132.879005, 238.193773)"><g><path d="M 76.875 -56.921875 L 103.390625 -0.234375 L 0 -0.234375 L 0 -111.625 L 103.390625 -111.625 Z M 76.875 -56.921875 "/></g></g></g></svg>